# xmcd CD database file
#
# Track frame offsets:
#	150
#	22857
#	43962
#
# Disc length: 975 seconds
#
# Revision: 0
# Processed by: cddbd v1.5.1PL2 Copyright (c) Steve Scherf et al.
# Submitted via: CDex 1.51
#
DISCID=1c03cd03
DTITLE=少年隊 - ふたり
DYEAR=1988
DGENRE=JPop
TTITLE0=ふたり
TTITLE1=MY GIRL
TTITLE2=ABC (S.P. DANCE MIX)
EXTD=YEAR: 1988
EXTT0=
EXTT1=
EXTT2=
PLAYORDER=
